<?xml version="1.0" encoding="UTF-8"?> <svg xmlns="http://www.w3.org/2000/svg" width="295" height="71" viewBox="0 0 295 71" fill="none"><path d="M58.2645 20.0842L55.7964 22.5523C58.5928 26.9155 59.9021 32.0665 59.5285 37.2355C59.155 42.4045 57.1186 47.3137 53.7239 51.2295L51.2862 48.7952L50.4511 47.9804L48.0134 45.5461C46.5128 47.4016 44.6182 48.9001 42.4668 49.9328C40.3154 50.9655 37.9613 51.5066 35.5749 51.5169C32.3006 51.5137 29.1059 50.5075 26.4208 48.6336C23.7357 46.7597 21.6892 44.1082 20.5567 41.0359C20.1455 39.9279 19.8619 38.7766 19.7115 37.6043H8.18921C8.27228 38.7572 8.43039 39.9035 8.66254 41.0359C9.47893 45.0161 11.1684 48.7655 13.6091 52.0138C16.0498 55.2621 19.1808 57.9282 22.7766 59.8201C26.3723 61.7119 30.343 62.7823 34.4024 62.9539C38.4618 63.1256 42.5087 62.3943 46.2513 60.8128C49.9939 59.2312 53.3389 56.8389 56.0451 53.8083C58.7513 50.7777 60.7513 47.1843 61.9008 43.2872C63.0503 39.3902 63.3207 35.2866 62.6924 31.2724C62.0642 27.2583 60.553 23.4335 58.2679 20.074L58.2645 20.0842ZM35.5749 59.5433C30.1636 59.537 24.9123 57.7067 20.6695 54.3479C16.4267 50.9891 13.4401 46.2981 12.1923 41.0325H16.9459C17.8597 44.1233 19.5283 46.938 21.8014 49.223C24.0745 51.5079 26.8806 53.1911 29.9666 54.121C33.0525 55.0508 36.3214 55.1979 39.4785 54.5491C42.6355 53.9003 45.5814 52.476 48.0506 50.4045L48.8823 51.2329L51.3099 53.6638C46.9484 57.4619 41.3583 59.5506 35.5749 59.5433Z" fill="black"></path><path d="M57.551 55.0737C56.7843 55.9232 55.9729 56.7313 55.1201 57.4944L56.9763 59.3438C52.4801 63.3892 46.9312 66.08 40.9706 67.1054C35.01 68.1308 28.8809 67.449 23.2913 65.1386C17.7018 62.8283 12.88 58.9837 9.38289 54.049C5.88578 49.1144 3.85611 43.291 3.52835 37.2517C3.2006 31.2125 4.58813 25.2037 7.53066 19.9195C10.4732 14.6354 14.8506 10.2916 20.1573 7.38988C25.464 4.48818 31.4833 3.14701 37.5199 3.52133C43.5564 3.89564 49.364 5.97015 54.2715 9.5052C55.2103 10.1775 56.1131 10.8987 56.9763 11.6656L53.717 14.9249C52.8534 14.1597 51.9408 13.4516 50.9852 12.805C47.25 10.2594 42.9437 8.67618 38.4492 8.19613C33.9546 7.71609 29.411 8.35408 25.2225 10.0534C21.0339 11.7527 17.3302 14.4607 14.4405 17.9365C11.5509 21.4124 9.56486 25.5484 8.65909 29.9769C8.43024 31.1098 8.27216 32.2559 8.18576 33.4085H19.6844C19.8339 32.2361 20.1175 31.0846 20.5296 29.9769C21.3023 27.8702 22.51 25.9499 24.0741 24.3409C25.6381 22.7319 27.5234 21.4703 29.6074 20.6382C31.6913 19.8061 33.9271 19.4222 36.1692 19.5114C38.4113 19.6006 40.6095 20.1609 42.6207 21.156C44.7124 22.1818 46.5533 23.6546 48.0134 25.4701L50.451 23.0358L51.2726 22.2108L53.7103 19.7765L56.131 17.3524L59.3903 14.0932L61.811 11.6724C61.0447 10.8215 60.2344 10.0112 59.3835 9.24487C58.5315 8.46725 57.6491 7.74035 56.7295 7.04725C51.3342 3.02172 44.9057 0.613115 38.1936 0.102354C31.4815 -0.408407 24.7625 0.999736 18.8203 4.16254C12.8781 7.32534 7.9576 12.1124 4.6327 17.9655C1.30781 23.8185 -0.28443 30.4963 0.0416964 37.2199C0.367823 43.9435 2.59887 50.4358 6.47462 55.9396C10.3504 61.4434 15.7111 65.7318 21.9315 68.3046C28.1519 70.8775 34.9756 71.6288 41.6068 70.4708C48.238 69.3128 54.4032 66.2934 59.3835 61.7646C60.236 61.0023 61.0463 60.1941 61.811 59.3438L59.3903 56.923L57.551 55.0737ZM48.0336 20.6049C44.5335 17.6917 40.1286 16.0875 35.5748 16.0676C31.3865 16.0713 27.3112 17.4266 23.9548 19.932C20.5985 22.4374 18.1403 25.9591 16.9458 29.9735H12.1787C13.0579 26.2355 14.8211 22.7631 17.3202 19.8476C19.8193 16.9321 22.9814 14.6587 26.541 13.2183C30.1005 11.7778 33.9537 11.2123 37.7771 11.5693C41.6004 11.9263 45.2823 13.1953 48.5137 15.2697C49.4896 15.8916 50.4185 16.5843 51.2929 17.3422L48.0336 20.6049Z" fill="black"></path><path d="M294.092 52H288.17L285.944 45.49H273.386L271.16 52H265.238L275.696 22.6H283.634L294.092 52ZM279.266 28.396L275.066 40.618H284.264L280.106 28.396H279.266Z" fill="black"></path><path d="M252.621 41.752L262.449 52H255.645L246.111 41.836H244.515V52H239.055V22.6H252.537C254.301 22.6 255.869 23.02 257.241 23.86C258.641 24.672 259.733 25.82 260.517 27.304C261.301 28.76 261.693 30.44 261.693 32.344C261.693 34.108 261.315 35.718 260.559 37.174C259.803 38.602 258.781 39.722 257.493 40.534C256.233 41.346 254.847 41.752 253.335 41.752H252.621ZM244.515 36.838H252.285C253.405 36.838 254.343 36.418 255.099 35.578C255.855 34.738 256.233 33.646 256.233 32.302C256.233 30.958 255.855 29.866 255.099 29.026C254.343 28.158 253.405 27.724 252.285 27.724H244.515V36.838Z" fill="black"></path><path d="M217.817 52.42C215.213 52.42 212.819 51.776 210.635 50.488C208.479 49.2 206.771 47.408 205.511 45.112C204.251 42.816 203.621 40.212 203.621 37.3C203.621 34.388 204.251 31.784 205.511 29.488C206.771 27.192 208.479 25.4 210.635 24.112C212.819 22.824 215.213 22.18 217.817 22.18C220.421 22.18 222.801 22.824 224.957 24.112C227.141 25.4 228.863 27.192 230.123 29.488C231.383 31.784 232.013 34.388 232.013 37.3C232.013 40.212 231.383 42.816 230.123 45.112C228.863 47.408 227.141 49.2 224.957 50.488C222.801 51.776 220.421 52.42 217.817 52.42ZM217.817 47.17C219.413 47.17 220.883 46.764 222.227 45.952C223.571 45.112 224.621 43.95 225.377 42.466C226.161 40.954 226.553 39.232 226.553 37.3C226.553 35.368 226.161 33.66 225.377 32.176C224.621 30.664 223.571 29.502 222.227 28.69C220.883 27.85 219.413 27.43 217.817 27.43C216.221 27.43 214.751 27.85 213.407 28.69C212.063 29.502 210.999 30.664 210.215 32.176C209.459 33.66 209.081 35.368 209.081 37.3C209.081 39.232 209.459 40.954 210.215 42.466C210.999 43.95 212.063 45.112 213.407 45.952C214.751 46.764 216.221 47.17 217.817 47.17Z" fill="black"></path><path d="M190.84 52H185.38V27.85H176.644V22.6H199.576V27.85H190.84V52Z" fill="black"></path><path d="M151.713 52H146.253V22.6H153.477L164.229 43.138H165.069V22.6H170.529V52H163.263L152.553 31.462H151.713V52Z" fill="black"></path><path d="M130.751 52H125.291V41.92L114.581 22.6H120.629L127.601 35.368H128.441L135.371 22.6H141.461L130.751 41.92V52Z" fill="black"></path><path d="M99.0439 52.42C96.4399 52.42 94.0459 51.776 91.8619 50.488C89.7059 49.2 87.9979 47.408 86.7379 45.112C85.4779 42.816 84.8479 40.212 84.8479 37.3C84.8479 34.388 85.4779 31.784 86.7379 29.488C87.9979 27.192 89.7059 25.4 91.8619 24.112C94.0459 22.824 96.4399 22.18 99.0439 22.18C101.424 22.18 103.538 22.698 105.386 23.734C107.262 24.742 108.774 26.072 109.922 27.724C111.098 29.348 111.896 31.098 112.316 32.974H106.772C106.296 31.434 105.372 30.132 104 29.068C102.656 27.976 101.004 27.43 99.0439 27.43C97.4479 27.43 95.9779 27.85 94.6339 28.69C93.2899 29.502 92.2259 30.664 91.4419 32.176C90.6859 33.66 90.3079 35.368 90.3079 37.3C90.3079 39.232 90.6859 40.954 91.4419 42.466C92.2259 43.95 93.2899 45.112 94.6339 45.952C95.9779 46.764 97.4479 47.17 99.0439 47.17C101.06 47.17 102.74 46.624 104.084 45.532C105.428 44.412 106.324 43.04 106.772 41.416H112.316C111.924 43.32 111.154 45.112 110.006 46.792C108.858 48.472 107.346 49.83 105.47 50.866C103.622 51.902 101.48 52.42 99.0439 52.42Z" fill="black"></path></svg> 